<?xml version="1.0" encoding="utf-8"?>
<!-- Generator: Adobe Illustrator 15.0.2, SVG Export Plug-In . SVG Version: 6.00 Build 0)  -->
<!DOCTYPE svg PUBLIC "-//W3C//DTD SVG 1.1//EN" "http://www.w3.org/Graphics/SVG/1.1/DTD/svg11.dtd">
<svg version="1.1" id="Layer_1" xmlns="http://www.w3.org/2000/svg" xmlns:xlink="http://www.w3.org/1999/xlink" x="0px" y="0px"
	 width="402.467px" height="62px" viewBox="0 0 402.467 62" enable-background="new 0 0 402.467 62" xml:space="preserve">
<rect fill="#B8DBA4" width="402.467" height="62"/>
<g>
	<g>
		<path fill="#429441" d="M55.81,23.836v18.45h-3.24v-18.45h-5.88v-2.91h15v2.91H55.81z"/>
		<path fill="#429441" d="M75.85,42.286l-1.47-4.291h-8.43l-1.47,4.291h-3.45l7.83-21.36h2.61l7.83,21.36H75.85z M70.24,25.756
			l-3.33,9.479h6.57L70.24,25.756z"/>
		<path fill="#429441" d="M95.169,42.286l-6-10.53l-3.6,4.319v6.211h-3.24v-21.36h3.24v10.74l8.729-10.74h3.96l-6.93,8.37
			l7.65,12.99H95.169z"/>
		<path fill="#429441" d="M102.07,42.286v-21.36h13.649v2.91h-10.41v6.24h8.879v2.88h-8.879v6.42h10.41v2.91H102.07z"/>
		<path fill="#429441" d="M134.589,23.836v18.45h-3.24v-18.45h-5.88v-2.91h15v2.91H134.589z"/>
		<path fill="#429441" d="M156.068,42.286v-9.33h-8.669v9.33h-3.24v-21.36h3.24v9.12h8.669v-9.12h3.24v21.36H156.068z"/>
		<path fill="#429441" d="M164.889,42.286v-21.36h13.649v2.91h-10.41v6.24h8.879v2.88h-8.879v6.42h10.41v2.91H164.889z"/>
		<path fill="#429441" d="M197.078,42.465c-2.22,0-4.14-0.811-5.609-2.28c-2.1-2.1-2.07-4.47-2.07-8.58s-0.03-6.479,2.07-8.58
			c1.47-1.47,3.39-2.28,5.609-2.28c3.93,0,6.87,2.31,7.619,6.57h-3.299c-0.51-2.16-1.95-3.66-4.32-3.66c-1.26,0-2.4,0.48-3.15,1.29
			c-1.05,1.14-1.29,2.37-1.29,6.66s0.24,5.52,1.29,6.66c0.75,0.81,1.89,1.29,3.15,1.29c2.37,0,3.84-1.5,4.35-3.66h3.269
			C203.979,40.155,200.948,42.465,197.078,42.465z"/>
		<path fill="#429441" d="M220.928,42.286v-9.33h-8.67v9.33h-3.239v-21.36h3.239v9.12h8.67v-9.12h3.24v21.36H220.928z"/>
		<path fill="#429441" d="M242.018,42.286l-1.471-4.291h-8.43l-1.469,4.291h-3.45l7.829-21.36h2.61l7.829,21.36H242.018z
			 M236.408,25.756l-3.33,9.479h6.569L236.408,25.756z"/>
		<path fill="#429441" d="M248.498,42.286v-21.36h3.24v18.45h10.289v2.91H248.498z"/>
		<path fill="#429441" d="M265.718,42.286v-21.36h3.239v18.45h10.29v2.91H265.718z"/>
		<path fill="#429441" d="M282.938,42.286v-21.36h13.649v2.91h-10.409v6.24h8.879v2.88h-8.879v6.42h10.409v2.91H282.938z"/>
		<path fill="#429441" d="M314.137,42.286l-9.869-15.03v15.03h-3.24v-21.36h2.97l9.87,15v-15h3.239v21.36H314.137z"/>
		<path fill="#429441" d="M335.467,40.036c-1.621,1.709-3.631,2.43-5.881,2.43c-2.219,0-4.139-0.811-5.609-2.28
			c-2.1-2.1-2.07-4.47-2.07-8.58s-0.029-6.479,2.07-8.58c1.471-1.47,3.33-2.28,5.609-2.28c4.53,0,7.17,2.97,7.771,6.63h-3.271
			c-0.539-2.34-2.1-3.72-4.5-3.72c-1.26,0-2.399,0.51-3.149,1.32c-1.05,1.14-1.29,2.34-1.29,6.629s0.24,5.52,1.29,6.66
			c0.75,0.81,1.89,1.29,3.149,1.29c1.41,0,2.641-0.54,3.48-1.5c0.779-0.9,1.08-1.98,1.08-3.359v-1.2h-4.561v-2.76h7.801v3.27
			C337.387,36.766,336.877,38.536,335.467,40.036z"/>
		<path fill="#429441" d="M342.156,42.286v-21.36h13.65v2.91h-10.41v6.24h8.879v2.88h-8.879v6.42h10.41v2.91H342.156z"/>
	</g>
</g>
</svg>
